0
SECTION
2
HEADER
9
$INSUNITS
70
4
0
ENDSEC
0
SECTION
2
ENTITIES
0
LINE
8
EDGE
10
0.000
20
0.000
11
219.060
21
0.000
0
LINE
8
EDGE
10
219.060
20
0.000
11
219.060
21
-231.760
0
LINE
8
EDGE
10
219.060
20
-231.760
11
0.000
21
-231.760
0
LINE
8
EDGE
10
0.000
20
-231.760
11
0.000
21
0.000
0
ARC
8
HOLES
10
8.240
20
-13.690
40
5.195
50
115.321
51
424.679
0
LINE
8
HOLES
10
6.018
20
-8.994
11
6.018
21
-6.267
0
LINE
8
HOLES
10
10.462
20
-8.994
11
10.462
21
-6.267
0
ARC
8
HOLES
10
8.240
20
-6.267
40
2.222
50
0.000
51
180.000
0
ARC
8
HOLES
10
210.160
20
-13.690
40
5.195
50
115.321
51
424.679
0
LINE
8
HOLES
10
207.938
20
-8.994
11
207.938
21
-6.267
0
LINE
8
HOLES
10
212.382
20
-8.994
11
212.382
21
-6.267
0
ARC
8
HOLES
10
210.160
20
-6.267
40
2.222
50
0.000
51
180.000
0
ARC
8
HOLES
10
8.240
20
-222.590
40
5.195
50
115.321
51
424.679
0
LINE
8
HOLES
10
6.018
20
-217.894
11
6.018
21
-215.167
0
LINE
8
HOLES
10
10.462
20
-217.894
11
10.462
21
-215.167
0
ARC
8
HOLES
10
8.240
20
-215.167
40
2.222
50
0.000
51
180.000
0
ARC
8
HOLES
10
210.160
20
-222.590
40
5.195
50
115.321
51
424.679
0
LINE
8
HOLES
10
207.938
20
-217.894
11
207.938
21
-215.167
0
LINE
8
HOLES
10
212.382
20
-217.894
11
212.382
21
-215.167
0
ARC
8
HOLES
10
210.160
20
-215.167
40
2.222
50
0.000
51
180.000
0
CIRCLE
8
HOLES
10
109.200
20
-6.980
40
3.165
0
CIRCLE
8
HOLES
10
97.140
20
-222.860
40
3.165
0
CIRCLE
8
HOLES
10
8.250
20
-116.840
40
3.165
0
CIRCLE
8
HOLES
10
210.170
20
-116.840
40
3.165
0
LINE
8
CONN
10
161.260
20
-216.910
11
196.920
21
-216.910
0
LINE
8
CONN
10
196.920
20
-216.910
11
196.920
21
-225.030
0
LINE
8
CONN
10
196.920
20
-225.030
11
161.260
21
-225.030
0
LINE
8
CONN
10
161.260
20
-225.030
11
161.260
21
-216.910
0
CIRCLE
8
PINS
10
194.940
20
-221.730
40
1.200
0
CIRCLE
8
PINS
10
190.980
20
-221.730
40
0.800
0
CIRCLE
8
PINS
10
187.020
20
-221.730
40
0.800
0
CIRCLE
8
PINS
10
183.060
20
-221.730
40
0.800
0
CIRCLE
8
PINS
10
179.100
20
-221.730
40
0.800
0
CIRCLE
8
PINS
10
175.140
20
-221.730
40
0.800
0
CIRCLE
8
PINS
10
171.180
20
-221.730
40
0.800
0
CIRCLE
8
PINS
10
167.220
20
-221.730
40
0.800
0
CIRCLE
8
PINS
10
163.260
20
-221.730
40
0.800
0
LINE
8
CONN
10
106.180
20
-216.910
11
153.750
21
-216.910
0
LINE
8
CONN
10
153.750
20
-216.910
11
153.750
21
-225.030
0
LINE
8
CONN
10
153.750
20
-225.030
11
106.180
21
-225.030
0
LINE
8
CONN
10
106.180
20
-225.030
11
106.180
21
-216.910
0
CIRCLE
8
PINS
10
151.770
20
-221.730
40
1.200
0
CIRCLE
8
PINS
10
147.810
20
-221.730
40
0.800
0
CIRCLE
8
PINS
10
143.850
20
-221.730
40
0.800
0
CIRCLE
8
PINS
10
139.890
20
-221.730
40
0.800
0
CIRCLE
8
PINS
10
135.930
20
-221.730
40
0.800
0
CIRCLE
8
PINS
10
131.970
20
-221.730
40
0.800
0
CIRCLE
8
PINS
10
128.010
20
-221.730
40
0.800
0
CIRCLE
8
PINS
10
124.050
20
-221.730
40
0.800
0
CIRCLE
8
PINS
10
120.090
20
-221.730
40
0.800
0
CIRCLE
8
PINS
10
116.130
20
-221.730
40
0.800
0
CIRCLE
8
PINS
10
112.170
20
-221.730
40
0.800
0
CIRCLE
8
PINS
10
108.210
20
-221.730
40
0.800
0
LINE
8
CONN
10
47.450
20
-216.910
11
87.070
21
-216.910
0
LINE
8
CONN
10
87.070
20
-216.910
11
87.070
21
-225.030
0
LINE
8
CONN
10
87.070
20
-225.030
11
47.450
21
-225.030
0
LINE
8
CONN
10
47.450
20
-225.030
11
47.450
21
-216.910
0
CIRCLE
8
PINS
10
85.090
20
-221.730
40
1.200
0
CIRCLE
8
PINS
10
81.130
20
-221.730
40
0.800
0
CIRCLE
8
PINS
10
77.170
20
-221.730
40
0.800
0
CIRCLE
8
PINS
10
73.210
20
-221.730
40
0.800
0
CIRCLE
8
PINS
10
69.250
20
-221.730
40
0.800
0
CIRCLE
8
PINS
10
65.290
20
-221.730
40
0.800
0
CIRCLE
8
PINS
10
61.330
20
-221.730
40
0.800
0
CIRCLE
8
PINS
10
57.370
20
-221.730
40
0.800
0
CIRCLE
8
PINS
10
53.410
20
-221.730
40
0.800
0
CIRCLE
8
PINS
10
49.450
20
-221.730
40
0.800
0
LINE
8
CONN
10
6.730
20
-65.870
11
14.850
21
-65.870
0
LINE
8
CONN
10
14.850
20
-65.870
11
14.850
21
-105.490
0
LINE
8
CONN
10
14.850
20
-105.490
11
6.730
21
-105.490
0
LINE
8
CONN
10
6.730
20
-105.490
11
6.730
21
-65.870
0
CIRCLE
8
PINS
10
10.030
20
-103.510
40
1.200
0
CIRCLE
8
PINS
10
10.030
20
-99.550
40
0.800
0
CIRCLE
8
PINS
10
10.030
20
-95.590
40
0.800
0
CIRCLE
8
PINS
10
10.030
20
-91.630
40
0.800
0
CIRCLE
8
PINS
10
10.030
20
-87.670
40
0.800
0
CIRCLE
8
PINS
10
10.030
20
-83.710
40
0.800
0
CIRCLE
8
PINS
10
10.030
20
-79.750
40
0.800
0
CIRCLE
8
PINS
10
10.030
20
-75.790
40
0.800
0
CIRCLE
8
PINS
10
10.030
20
-71.830
40
0.800
0
CIRCLE
8
PINS
10
10.030
20
-67.870
40
0.800
0
LINE
8
CONN
10
6.730
20
-126.190
11
14.850
21
-126.190
0
LINE
8
CONN
10
14.850
20
-126.190
11
14.850
21
-165.810
0
LINE
8
CONN
10
14.850
20
-165.810
11
6.730
21
-165.810
0
LINE
8
CONN
10
6.730
20
-165.810
11
6.730
21
-126.190
0
CIRCLE
8
PINS
10
10.030
20
-163.830
40
1.200
0
CIRCLE
8
PINS
10
10.030
20
-159.870
40
0.800
0
CIRCLE
8
PINS
10
10.030
20
-155.910
40
0.800
0
CIRCLE
8
PINS
10
10.030
20
-151.950
40
0.800
0
CIRCLE
8
PINS
10
10.030
20
-147.990
40
0.800
0
CIRCLE
8
PINS
10
10.030
20
-144.030
40
0.800
0
CIRCLE
8
PINS
10
10.030
20
-140.070
40
0.800
0
CIRCLE
8
PINS
10
10.030
20
-136.110
40
0.800
0
CIRCLE
8
PINS
10
10.030
20
-132.150
40
0.800
0
CIRCLE
8
PINS
10
10.030
20
-128.190
40
0.800
0
LINE
8
CONN
10
6.730
20
-170.630
11
14.850
21
-170.630
0
LINE
8
CONN
10
14.850
20
-170.630
11
14.850
21
-210.260
0
LINE
8
CONN
10
14.850
20
-210.260
11
6.730
21
-210.260
0
LINE
8
CONN
10
6.730
20
-210.260
11
6.730
21
-170.630
0
CIRCLE
8
PINS
10
10.030
20
-208.280
40
1.200
0
CIRCLE
8
PINS
10
10.030
20
-204.320
40
0.800
0
CIRCLE
8
PINS
10
10.030
20
-200.360
40
0.800
0
CIRCLE
8
PINS
10
10.030
20
-196.400
40
0.800
0
CIRCLE
8
PINS
10
10.030
20
-192.440
40
0.800
0
CIRCLE
8
PINS
10
10.030
20
-188.480
40
0.800
0
CIRCLE
8
PINS
10
10.030
20
-184.520
40
0.800
0
CIRCLE
8
PINS
10
10.030
20
-180.560
40
0.800
0
CIRCLE
8
PINS
10
10.030
20
-176.600
40
0.800
0
CIRCLE
8
PINS
10
10.030
20
-172.640
40
0.800
0
LINE
8
CONN
10
56.430
20
-7.750
11
80.000
21
-7.750
0
LINE
8
CONN
10
80.000
20
-7.750
11
80.000
21
-16.890
0
LINE
8
CONN
10
80.000
20
-16.890
11
56.430
21
-16.890
0
LINE
8
CONN
10
56.430
20
-16.890
11
56.430
21
-7.750
0
CIRCLE
8
PINS
10
58.410
20
-11.180
40
1.200
0
CIRCLE
8
PINS
10
62.370
20
-11.180
40
0.800
0
CIRCLE
8
PINS
10
66.330
20
-11.180
40
0.800
0
CIRCLE
8
PINS
10
70.290
20
-11.180
40
0.800
0
CIRCLE
8
PINS
10
74.250
20
-11.180
40
0.800
0
CIRCLE
8
PINS
10
78.210
20
-11.180
40
0.800
0
LINE
8
CONN
10
154.210
20
-5.460
11
170.060
21
-5.460
0
LINE
8
CONN
10
170.060
20
-5.460
11
170.060
21
-13.590
0
LINE
8
CONN
10
170.060
20
-13.590
11
154.210
21
-13.590
0
LINE
8
CONN
10
154.210
20
-13.590
11
154.210
21
-5.460
0
CIRCLE
8
PINS
10
156.190
20
-8.760
40
1.200
0
CIRCLE
8
PINS
10
160.150
20
-8.760
40
0.800
0
CIRCLE
8
PINS
10
164.110
20
-8.760
40
0.800
0
CIRCLE
8
PINS
10
168.070
20
-8.760
40
0.800
0
LINE
8
CONN
10
6.980
20
-24.130
11
15.870
21
-24.130
0
LINE
8
CONN
10
15.870
20
-24.130
11
15.870
21
-57.150
0
LINE
8
CONN
10
15.870
20
-57.150
11
6.980
21
-57.150
0
LINE
8
CONN
10
6.980
20
-57.150
11
6.980
21
-24.130
0
CIRCLE
8
PINS
10
12.700
20
-52.070
40
0.800
0
CIRCLE
8
PINS
10
10.160
20
-52.070
40
0.500
0
CIRCLE
8
PINS
10
12.700
20
-49.530
40
0.500
0
CIRCLE
8
PINS
10
10.160
20
-49.530
40
0.500
0
CIRCLE
8
PINS
10
12.700
20
-46.990
40
0.500
0
CIRCLE
8
PINS
10
10.160
20
-46.990
40
0.500
0
CIRCLE
8
PINS
10
12.700
20
-44.450
40
0.500
0
CIRCLE
8
PINS
10
10.160
20
-44.450
40
0.500
0
CIRCLE
8
PINS
10
12.700
20
-41.910
40
0.500
0
CIRCLE
8
PINS
10
10.160
20
-41.910
40
0.500
0
CIRCLE
8
PINS
10
12.700
20
-39.370
40
0.500
0
CIRCLE
8
PINS
10
10.160
20
-39.370
40
0.500
0
CIRCLE
8
PINS
10
12.700
20
-36.830
40
0.500
0
CIRCLE
8
PINS
10
10.160
20
-36.830
40
0.500
0
CIRCLE
8
PINS
10
12.700
20
-34.290
40
0.500
0
CIRCLE
8
PINS
10
10.160
20
-34.290
40
0.500
0
CIRCLE
8
PINS
10
12.700
20
-31.750
40
0.500
0
CIRCLE
8
PINS
10
10.160
20
-31.750
40
0.500
0
CIRCLE
8
PINS
10
12.700
20
-29.210
40
0.500
0
CIRCLE
8
PINS
10
10.160
20
-29.210
40
0.500
0
LINE
8
CONN
10
205.720
20
-144.140
11
214.620
21
-144.140
0
LINE
8
CONN
10
214.620
20
-144.140
11
214.620
21
-169.540
0
LINE
8
CONN
10
214.620
20
-169.540
11
205.720
21
-169.540
0
LINE
8
CONN
10
205.720
20
-169.540
11
205.720
21
-144.140
0
CIRCLE
8
PINS
10
211.440
20
-164.460
40
0.800
0
CIRCLE
8
PINS
10
208.900
20
-164.460
40
0.500
0
CIRCLE
8
PINS
10
211.440
20
-161.920
40
0.500
0
CIRCLE
8
PINS
10
208.900
20
-161.920
40
0.500
0
CIRCLE
8
PINS
10
211.440
20
-159.380
40
0.500
0
CIRCLE
8
PINS
10
208.900
20
-159.380
40
0.500
0
CIRCLE
8
PINS
10
211.440
20
-156.840
40
0.500
0
CIRCLE
8
PINS
10
208.900
20
-156.840
40
0.500
0
CIRCLE
8
PINS
10
211.440
20
-154.300
40
0.500
0
CIRCLE
8
PINS
10
208.900
20
-154.300
40
0.500
0
CIRCLE
8
PINS
10
211.440
20
-151.760
40
0.500
0
CIRCLE
8
PINS
10
208.900
20
-151.760
40
0.500
0
CIRCLE
8
PINS
10
211.440
20
-149.220
40
0.500
0
CIRCLE
8
PINS
10
208.900
20
-149.220
40
0.500
0
LINE
8
CONN
10
206.230
20
-77.930
11
215.380
21
-77.930
0
LINE
8
CONN
10
215.380
20
-77.930
11
215.380
21
-110.040
0
LINE
8
CONN
10
215.380
20
-110.040
11
206.230
21
-110.040
0
LINE
8
CONN
10
206.230
20
-110.040
11
206.230
21
-77.930
0
CIRCLE
8
PINS
10
212.080
20
-105.400
40
0.800
0
CIRCLE
8
PINS
10
209.540
20
-105.400
40
0.500
0
CIRCLE
8
PINS
10
212.080
20
-102.860
40
0.500
0
CIRCLE
8
PINS
10
209.540
20
-102.860
40
0.500
0
CIRCLE
8
PINS
10
212.080
20
-100.320
40
0.500
0
CIRCLE
8
PINS
10
209.540
20
-100.320
40
0.500
0
CIRCLE
8
PINS
10
212.080
20
-97.780
40
0.500
0
CIRCLE
8
PINS
10
209.540
20
-97.780
40
0.500
0
CIRCLE
8
PINS
10
212.080
20
-95.240
40
0.500
0
CIRCLE
8
PINS
10
209.540
20
-95.240
40
0.500
0
CIRCLE
8
PINS
10
212.080
20
-92.700
40
0.500
0
CIRCLE
8
PINS
10
209.540
20
-92.700
40
0.500
0
CIRCLE
8
PINS
10
212.080
20
-90.160
40
0.500
0
CIRCLE
8
PINS
10
209.540
20
-90.160
40
0.500
0
CIRCLE
8
PINS
10
212.080
20
-87.620
40
0.500
0
CIRCLE
8
PINS
10
209.540
20
-87.620
40
0.500
0
CIRCLE
8
PINS
10
212.080
20
-85.080
40
0.500
0
CIRCLE
8
PINS
10
209.540
20
-85.080
40
0.500
0
CIRCLE
8
PINS
10
212.080
20
-82.540
40
0.500
0
CIRCLE
8
PINS
10
209.540
20
-82.540
40
0.500
0
LINE
8
CONN
10
205.090
20
-123.820
11
212.710
21
-123.820
0
LINE
8
CONN
10
212.710
20
-123.820
11
212.710
21
-139.060
0
LINE
8
CONN
10
212.710
20
-139.060
11
205.090
21
-139.060
0
LINE
8
CONN
10
205.090
20
-139.060
11
205.090
21
-123.820
0
LINE
8
CONN
10
186.170
20
-157.030
11
202.930
21
-157.030
0
LINE
8
CONN
10
202.930
20
-157.030
11
202.930
21
-170.640
0
LINE
8
CONN
10
202.930
20
-170.640
11
186.170
21
-170.640
0
LINE
8
CONN
10
186.170
20
-170.640
11
186.170
21
-157.030
0
LINE
8
CONN
10
206.780
20
-173.180
11
225.320
21
-173.180
0
LINE
8
CONN
10
225.320
20
-173.180
11
225.320
21
-204.370
0
LINE
8
CONN
10
225.320
20
-204.370
11
206.780
21
-204.370
0
LINE
8
CONN
10
206.780
20
-204.370
11
206.780
21
-173.180
0
LINE
8
CONN
10
204.220
20
-60.410
11
219.060
21
-60.410
0
LINE
8
CONN
10
219.060
20
-60.410
11
219.060
21
-75.670
0
LINE
8
CONN
10
219.060
20
-75.670
11
204.220
21
-75.670
0
LINE
8
CONN
10
204.220
20
-75.670
11
204.220
21
-60.410
0
ENDSEC
0
EOF
